<svg width="939" height="1144" viewBox="0 0 939 1144" fill="none" xmlns="http://www.w3.org/2000/svg">
<path d="M1080.22 0.630371C989.365 52.721 833.414 142.039 739.637 195.861H739.605L736.867 197.436C736.586 197.605 736.305 197.786 736.036 197.967C731.041 201.302 727.149 206.044 724.853 211.593L724.453 212.531V212.562L593.988 516.23L593.888 516.461C483.764 554.357 282.169 616.324 169.106 658.495C162.585 660.92 156.371 663.281 150.466 665.577C149.694 666.193 148.955 666.851 148.253 667.546C146.303 670.252 143.577 675.621 140.345 682.809C122.274 722.93 88.2995 819.63 84.8427 825.318L0.0414429 1045.18V1165.73H73.991L518.251 867.751L555.188 870.345L557.651 870.52L560.97 870.751L563.614 870.939L625.287 875.271L629.281 875.552L632.913 875.808L643.715 876.565L647.684 876.846L656.054 877.433L659.936 877.702L677.345 878.952L683.802 879.408L685.965 879.558L692.448 880.015L698.949 880.471L703.287 880.777L705.456 880.927L709.788 881.233L711.957 881.384L716.289 881.69L718.452 881.84L722.771 882.146L727.078 882.446L746.3 883.796L748.413 883.946L752.626 884.24L756.808 884.534L760.965 884.827L784.019 886.446L787.201 886.671L842.96 890.584L845.604 890.772L848.923 891.003L851.386 891.178L888.33 893.772C941.113 978.602 1004.41 1080.31 1057.58 1165.76H1080.22V1087.38L1056.38 1049.08C1024.5 998.222 985.358 934.699 953.79 884.215C953.79 884.215 934.543 853.3 934.224 852.782C923.098 806.279 909.495 749.057 898.694 703.86C894.162 684.853 821.987 382.366 793.627 263.521C880.703 283.204 1055.54 322.8 1080.22 328.344V266.184L835.446 210.83L1080.22 70.5095V0.630371ZM444.139 844.462L441.101 846.5L434.85 850.7L425.979 856.651L420.46 860.357L418.584 861.607L414.79 864.151L407.02 869.364L399.006 874.739L396.712 876.277L392.855 878.864L371.521 893.172L341.866 913.06L337.077 916.273L327.963 922.386L322.519 926.036L307.71 935.968L300.209 940.968L286.382 950.244L272.448 959.588L267.36 963.001L262.265 966.42L257.164 969.839L254.614 971.551L249.507 974.977L241.849 980.114L236.742 983.54L231.642 986.958L226.547 990.378L221.459 993.79L216.377 997.197L213.876 998.897L208.813 1002.29L203.762 1005.68L130.906 1054.54L126.581 1057.44L124.08 1059.14L119.567 1062.17L112.885 1066.65L106.315 1071.06L104.152 1072.51L99.8639 1075.38L91.4688 1081.01L87.3556 1083.76L83.305 1086.48L79.3168 1089.16L73.4596 1093.09L67.7524 1096.92L64.0393 1099.42L56.8257 1104.25L53.3314 1106.6L51.6123 1107.75L46.6115 1111.12L44.9737 1112.22L38.6352 1116.47L37.2725 1117.39C59.4198 1059.98 167.294 780.209 186.966 729.174L188.066 729.656L189.629 730.331L190.929 730.899L192.366 731.524L195.604 732.943L197.011 733.568L198.661 734.287L200.618 735.137L202.618 736.006L205.3 737.175C205.606 737.3 205.925 737.437 206.219 737.575C207.119 737.962 208.044 738.362 208.975 738.775L210.888 739.6L212.401 740.262L217.183 742.338L218.983 743.125L220.771 743.9L222.546 744.675L223.684 745.169L225.178 745.794L230.473 748.094L232.51 748.982L233.973 749.607C234.173 749.694 234.373 749.776 234.598 749.869L236.217 750.576L238.98 751.776L240.318 752.357L243.925 753.932L244.156 754.032L246.556 755.076L247.475 755.476L250.013 756.582L252.276 757.57L252.814 757.801L253.82 758.245L254.327 758.464L255.27 758.876L256.189 759.276L257.158 759.695L260.021 760.945L261.271 761.489L288.838 773.565L292.589 775.19L293.508 775.589L295.977 776.665L306.535 781.265L312.874 784.021L321.625 787.828L325.926 789.703L330.645 791.759L332.939 792.759L356.531 803.029L360.362 804.698L365.138 806.773L376.834 811.867L380.747 813.573C382.479 814.323 384.198 815.067 385.892 815.811L390.311 817.736C390.355 817.749 390.397 817.768 390.436 817.792L396.781 820.549L403.032 823.274L407.089 825.043L407.189 825.086L411.896 827.136L414.871 828.43L418.591 830.049L418.872 830.174L421.172 831.174L422.191 831.618C424.992 832.831 427.667 833.995 430.218 835.112L430.624 835.287L433.749 836.649L438.169 838.575C438.863 838.875 439.544 839.2 440.213 839.468H440.25L442.245 840.337L445.958 841.95L447.108 842.45L444.139 844.462ZM533.172 682.697L532.047 685.822L530.884 689.059L529.69 692.391L528.44 695.822L527.19 699.354L523.358 710.023L521.17 716.117L520.126 718.967L518.163 724.43C517.559 726.13 516.953 727.82 516.344 729.499C515.781 731.074 515.219 732.641 514.656 734.2L513.094 738.575C512.577 740.025 512.06 741.463 511.543 742.888C511.289 743.609 511.033 744.321 510.774 745.025C508.737 750.701 506.755 756.232 504.83 761.576L503.548 765.145C500.992 772.258 498.547 779.021 496.291 785.347C496.066 785.972 495.841 786.597 495.622 787.222C494.509 790.305 493.442 793.27 492.421 796.116L484.495 792.622L481.888 791.49L479.488 790.447L475.737 788.809H475.7L473.762 787.965L471.887 787.159L471.662 787.059L469.786 786.253L465.98 784.596L463.992 783.734L460.579 782.253L459.11 781.627L458.835 781.502L457.803 781.052L455.272 779.952L454.59 779.659L453.053 778.99L451.615 778.365L451.196 778.184L450.765 777.996L450.396 777.84L450.021 777.677L449.602 777.496L445.114 775.539L442.52 774.408L438.475 772.646L435.906 771.527L433.962 770.677L428.03 768.095L425.892 767.164L423.429 766.089L421.491 765.245L417.947 763.701L413.859 761.92L410.183 760.32L406.482 758.707L399.838 755.814L397.193 754.663L394.262 753.413H394.212L388.236 750.807L386.192 749.919L378.14 746.413L370.014 742.888H369.952L360.769 738.887H360.731L351.586 734.9L331.452 725.999L328.032 724.512L324.994 723.186L322.319 722.024L318.612 720.405L316.418 719.455L312.411 717.711L312.273 717.649L306.31 715.048L304.203 714.136L302.241 713.28L300.422 712.486C299.459 712.067 298.502 711.654 297.559 711.236C296.615 710.817 295.683 710.417 294.739 709.986L287.513 706.86L285.769 706.104L285.638 706.048L284.519 705.56L281.475 704.235C280.112 703.648 278.785 703.068 277.493 702.498L276.318 701.985L274.874 701.36L273.805 700.897L270.71 699.548C269.992 699.241 269.291 698.922 268.598 698.629L268.491 698.585C267.585 698.198 266.71 697.81 265.853 697.435L263.353 696.347L263.272 696.316L260.953 695.304L259.765 694.791L257.658 693.872L254.727 692.622L566.784 589.116H566.84L534.266 679.653L533.172 682.697ZM866.826 831.456L865.357 831.355L862.607 831.162L860.788 831.037L857.262 830.787L855.48 830.662L852.536 830.455L851.042 830.349L846.11 830.005L841.053 829.649L808.335 827.349L804.778 827.099L797.577 826.593L793.933 826.336L786.557 825.818L779.055 825.292L771.492 824.761L763.847 824.224L759.996 823.955L752.251 823.411L748.357 823.136L736.611 822.311L724.79 821.48L716.889 820.924L705.012 820.092L697.117 819.536L690.241 819.055L669.725 817.611L662.005 817.067L646.797 816.005L639.295 815.48L591.644 812.129L588.675 811.917L587.068 811.804L584.311 811.611L564.077 810.192L561.658 810.023L552.2 809.36H552.069C566.371 766.233 587.131 708.729 610.459 646.963C654.76 529.687 708.338 397.161 744.594 319.243L866.826 831.456Z" fill="#4888C1" fill-opacity="0.5"/>
</svg>
