<svg width="143" height="143" viewBox="0 0 143 143" fill="none" xmlns="http://www.w3.org/2000/svg">
<path fill-rule="evenodd" clip-rule="evenodd" d="M0.223755 5.29716C0.223755 4.03834 0.72387 2.83108 1.61408 1.94096C2.50429 1.05084 3.71167 0.550781 4.97062 0.550781H19.2112C20.2701 0.551074 21.2984 0.905342 22.1327 1.55725C22.9671 2.20915 23.5594 3.12127 23.8157 4.14854L27.6606 19.5363H137.883C138.58 19.5369 139.268 19.6911 139.899 19.9877C140.53 20.2843 141.087 20.7162 141.532 21.2526C141.977 21.7891 142.299 22.4169 142.473 23.0915C142.648 23.7661 142.673 24.471 142.544 25.156L128.304 101.098C128.1 102.186 127.523 103.168 126.672 103.875C125.82 104.582 124.749 104.97 123.642 104.971H38.1987C37.092 104.97 36.0205 104.582 35.1693 103.875C34.3182 103.168 33.7409 102.186 33.5373 101.098L19.3062 25.2984L15.5087 10.0435H4.97062C3.71167 10.0435 2.50429 9.54348 1.61408 8.65336C0.72387 7.76324 0.223755 6.55598 0.223755 5.29716ZM47.6924 104.971C42.6566 104.971 37.8271 106.971 34.2663 110.532C30.7054 114.092 28.705 118.921 28.705 123.957C28.705 128.992 30.7054 133.821 34.2663 137.381C37.8271 140.942 42.6566 142.942 47.6924 142.942C52.7282 142.942 57.5577 140.942 61.1186 137.381C64.6794 133.821 66.6799 128.992 66.6799 123.957C66.6799 118.921 64.6794 114.092 61.1186 110.532C57.5577 106.971 52.7282 104.971 47.6924 104.971ZM114.149 104.971C109.113 104.971 104.283 106.971 100.722 110.532C97.1616 114.092 95.1611 118.921 95.1611 123.957C95.1611 128.992 97.1616 133.821 100.722 137.381C104.283 140.942 109.113 142.942 114.149 142.942C119.184 142.942 124.014 140.942 127.575 137.381C131.136 133.821 133.136 128.992 133.136 123.957C133.136 118.921 131.136 114.092 127.575 110.532C124.014 106.971 119.184 104.971 114.149 104.971ZM47.6924 114.464C45.1745 114.464 42.7598 115.464 40.9793 117.244C39.1989 119.024 38.1987 121.439 38.1987 123.957C38.1987 126.474 39.1989 128.889 40.9793 130.669C42.7598 132.449 45.1745 133.449 47.6924 133.449C50.2103 133.449 52.6251 132.449 54.4055 130.669C56.1859 128.889 57.1862 126.474 57.1862 123.957C57.1862 121.439 56.1859 119.024 54.4055 117.244C52.6251 115.464 50.2103 114.464 47.6924 114.464ZM114.149 114.464C111.631 114.464 109.216 115.464 107.435 117.244C105.655 119.024 104.655 121.439 104.655 123.957C104.655 126.474 105.655 128.889 107.435 130.669C109.216 132.449 111.631 133.449 114.149 133.449C116.666 133.449 119.081 132.449 120.862 130.669C122.642 128.889 123.642 126.474 123.642 123.957C123.642 121.439 122.642 119.024 120.862 117.244C119.081 115.464 116.666 114.464 114.149 114.464Z" fill="white"/>
</svg>
