<svg width="90" height="120" viewBox="0 0 90 120" fill="none" xmlns="http://www.w3.org/2000/svg">
<path fill-rule="evenodd" clip-rule="evenodd" d="M74.6704 0.559082H15.0773C11.1261 0.559082 7.33664 2.1313 4.54268 4.92986C1.74871 7.72843 0.179077 11.5241 0.179077 15.4819V105.019C0.179077 108.976 1.74871 112.772 4.54268 115.571C7.33664 118.369 11.1261 119.941 15.0773 119.941H74.6704C78.6217 119.941 82.4111 118.369 85.2051 115.571C87.999 112.772 89.5687 108.976 89.5687 105.019V15.4819C89.5687 11.5241 87.999 7.72843 85.2051 4.92986C82.4111 2.1313 78.6217 0.559082 74.6704 0.559082V0.559082ZM22.5265 30.4046C21.5387 30.4046 20.5913 30.7977 19.8928 31.4973C19.1943 32.197 18.8019 33.1459 18.8019 34.1353C18.8019 35.1248 19.1943 36.0737 19.8928 36.7733C20.5913 37.473 21.5387 37.866 22.5265 37.866H67.2213C68.2091 37.866 69.1564 37.473 69.8549 36.7733C70.5534 36.0737 70.9458 35.1248 70.9458 34.1353C70.9458 33.1459 70.5534 32.197 69.8549 31.4973C69.1564 30.7977 68.2091 30.4046 67.2213 30.4046H22.5265ZM18.8019 49.0581C18.8019 48.0687 19.1943 47.1197 19.8928 46.4201C20.5913 45.7205 21.5387 45.3274 22.5265 45.3274H67.2213C68.2091 45.3274 69.1564 45.7205 69.8549 46.4201C70.5534 47.1197 70.9458 48.0687 70.9458 49.0581C70.9458 50.0475 70.5534 50.9965 69.8549 51.6961C69.1564 52.3957 68.2091 52.7888 67.2213 52.7888H22.5265C21.5387 52.7888 20.5913 52.3957 19.8928 51.6961C19.1943 50.9965 18.8019 50.0475 18.8019 49.0581ZM22.5265 60.2502C21.5387 60.2502 20.5913 60.6432 19.8928 61.3429C19.1943 62.0425 18.8019 62.9914 18.8019 63.9809C18.8019 64.9703 19.1943 65.9192 19.8928 66.6189C20.5913 67.3185 21.5387 67.7116 22.5265 67.7116H67.2213C68.2091 67.7116 69.1564 67.3185 69.8549 66.6189C70.5534 65.9192 70.9458 64.9703 70.9458 63.9809C70.9458 62.9914 70.5534 62.0425 69.8549 61.3429C69.1564 60.6432 68.2091 60.2502 67.2213 60.2502H22.5265ZM22.5265 75.173C21.5387 75.173 20.5913 75.566 19.8928 76.2656C19.1943 76.9653 18.8019 77.9142 18.8019 78.9037C18.8019 79.8931 19.1943 80.842 19.8928 81.5417C20.5913 82.2413 21.5387 82.6343 22.5265 82.6343H44.8739C45.8617 82.6343 46.809 82.2413 47.5075 81.5417C48.206 80.842 48.5984 79.8931 48.5984 78.9037C48.5984 77.9142 48.206 76.9653 47.5075 76.2656C46.809 75.566 45.8617 75.173 44.8739 75.173H22.5265Z" fill="white"/>
</svg>
