<svg width="126" height="126" viewBox="0 0 126 126" fill="none" xmlns="http://www.w3.org/2000/svg">
<path fill-rule="evenodd" clip-rule="evenodd" d="M0.778687 16.3105C0.778687 12.1663 2.42515 8.19174 5.35589 5.2613C8.28662 2.33087 12.2615 0.68457 16.4062 0.68457L110.171 0.68457C114.316 0.68457 118.291 2.33087 121.222 5.2613C124.152 8.19174 125.799 12.1663 125.799 16.3105V110.066C125.799 114.21 124.152 118.185 121.222 121.115C118.291 124.046 114.316 125.692 110.171 125.692H16.4062C12.2615 125.692 8.28662 124.046 5.35589 121.115C2.42515 118.185 0.778687 114.21 0.778687 110.066V16.3105ZM70.5556 52.1564L52.6621 54.3988L52.0214 57.3677L55.5376 58.0162C57.8348 58.5631 58.288 59.3913 57.7879 61.6805L52.0214 88.7758C50.5055 95.7841 52.8418 99.0812 58.3349 99.0812C62.5934 99.0812 67.5395 97.1123 69.7821 94.409L70.4697 91.1588C68.9069 92.5339 66.6253 93.0808 65.1094 93.0808C62.9606 93.0808 62.1793 91.5729 62.734 88.9165L70.5556 52.1564ZM63.2888 43.6559C65.3612 43.6559 67.3486 42.8328 68.814 41.3676C70.2794 39.9023 71.1026 37.9151 71.1026 35.8429C71.1026 33.7708 70.2794 31.7836 68.814 30.3183C67.3486 28.8531 65.3612 28.03 63.2888 28.03C61.2165 28.03 59.229 28.8531 57.7637 30.3183C56.2983 31.7836 55.4751 33.7708 55.4751 35.8429C55.4751 37.9151 56.2983 39.9023 57.7637 41.3676C59.229 42.8328 61.2165 43.6559 63.2888 43.6559Z" fill="white"/>
</svg>
